<?xml version="1.0" standalone="no"?>
<!DOCTYPE svg PUBLIC "-//W3C//DTD SVG 20010904//EN"
 "http://www.w3.org/TR/2001/REC-SVG-20010904/DTD/svg10.dtd">
<svg version="1.0" xmlns="http://www.w3.org/2000/svg"
 width="640.000000pt" height="640.000000pt" viewBox="0 0 640.000000 640.000000"
 preserveAspectRatio="xMidYMid meet">
<metadata>
Created by potrace 1.11, written by Peter Selinger 2001-2013
</metadata>
<g transform="translate(0.000000,640.000000) scale(0.100000,-0.100000)"
fill="#000000" stroke="none">
<path d="M0 3200 l0 -3200 3200 0 3200 0 0 3200 0 3200 -3200 0 -3200 0 0
-3200z m2655 3035 c216 -59 408 -218 504 -418 52 -108 71 -181 78 -302 18
-320 -166 -621 -461 -755 -113 -51 -178 -64 -326 -64 -124 0 -143 3 -230 32
-52 17 -124 48 -160 69 -87 51 -227 190 -278 278 -86 148 -125 328 -104 490
45 355 313 632 667 688 57 10 250 -2 310 -18z m1100 -1701 c396 -119 725 -222
730 -229 11 -13 349 -1245 343 -1249 -1 -1 -145 -41 -318 -88 -208 -56 -316
-82 -319 -74 -3 6 -59 209 -125 450 l-121 439 -290 87 c-159 48 -291 86 -293
85 -1 -1 105 -232 237 -514 l240 -512 171 -691 c93 -380 172 -693 173 -695 2
-1 271 -100 598 -218 327 -119 597 -220 601 -224 6 -5 -205 -607 -217 -619 -4
-4 -1527 548 -1538 558 -4 4 -64 236 -133 516 -69 280 -126 509 -127 510 -1 1
-285 -99 -631 -221 l-629 -221 -225 -740 c-124 -406 -227 -740 -228 -742 -2
-4 -624 185 -631 191 -7 8 544 1799 556 1807 7 4 311 112 677 241 365 128 664
238 664 244 1 34 -117 495 -127 495 -6 0 -269 -70 -583 -156 -314 -86 -577
-153 -584 -151 -10 4 -581 905 -594 938 -2 4 123 86 277 182 l280 176 74 -117
c41 -64 116 -183 166 -264 51 -82 97 -148 103 -148 5 0 169 43 363 96 221 61
352 101 349 108 -5 16 -184 758 -184 766 0 3 43 11 97 18 151 19 339 91 424
161 13 11 31 20 39 21 8 0 339 -97 735 -216z"/>
</g>
</svg>
